<svg width="1728" height="1117" viewBox="0 0 1728 1117" fill="none" xmlns="http://www.w3.org/2000/svg">
<path opacity="0.0144928" d="M1587.23 1593.65C1596.15 1598.38 1607.08 1596.74 1614.22 1589.66L1614.55 1589.32L1840.89 1355.24C1845.1 1350.88 1847.42 1345.04 1847.35 1338.97L1847.35 1338.97L1841.73 872.909C1841.68 868.291 1840.23 863.8 1837.59 860.019L1837.33 859.655L1597.19 529.549C1592.1 522.559 1583.53 519.01 1574.99 520.362L1294.54 564.781C1286.27 566.091 1279.38 571.787 1276.53 579.614L1276.27 580.378L1149.88 968.537C1148.45 972.928 1148.38 977.645 1149.66 982.073L1149.79 982.501L1288.47 1427.49C1290.22 1433.1 1294.04 1437.82 1299.15 1440.69L1299.65 1440.96L1587.23 1593.65Z" stroke="url(#paint0_linear_3_108)" stroke-width="4"/>
<path opacity="0.0289855" d="M1536.08 1592.16C1544.72 1597.32 1555.69 1596.26 1563.18 1589.59L1563.53 1589.27L1800.45 1369.33C1804.76 1365.32 1807.36 1359.83 1807.75 1353.98L1807.78 1353.41L1826.61 891.976C1826.8 887.348 1825.58 882.773 1823.13 878.85L1822.89 878.473L1601.81 539.496C1597.09 532.265 1588.73 528.284 1580.14 529.186L1299.43 558.69C1291.11 559.564 1283.95 564.879 1280.68 572.532L1280.38 573.28L1134.6 950.815C1132.94 955.136 1132.61 959.857 1133.67 964.36L1133.78 964.796L1248.13 1412.23C1249.59 1417.93 1253.17 1422.84 1258.13 1425.98L1258.61 1426.27L1536.08 1592.16Z" stroke="url(#paint1_linear_3_108)" stroke-width="4"/>
<path opacity="0.0434783" d="M1485.32 1589.12C1493.66 1594.7 1504.64 1594.22 1512.46 1587.98L1512.83 1587.67L1759.47 1382.32C1764 1378.56 1766.9 1373.2 1767.59 1367.37L1767.65 1366.8L1810.43 911.271C1810.87 906.645 1809.89 902 1807.63 897.945L1807.41 897.555L1605.66 550.788C1601.32 543.336 1593.18 538.934 1584.58 539.385L1304.39 554.069C1296.05 554.506 1288.63 559.427 1284.96 566.884L1284.61 567.613L1120.22 933.569C1118.31 937.807 1117.74 942.519 1118.56 947.084L1118.65 947.526L1208.8 1396.09C1209.96 1401.86 1213.29 1406.96 1218.1 1410.35L1218.56 1410.67L1485.32 1589.12Z" stroke="url(#paint2_linear_3_108)" stroke-width="4"/>
<path opacity="0.057971" d="M1435.04 1584.56C1443.07 1590.54 1454.02 1590.64 1462.14 1584.84L1462.52 1584.56L1718.02 1394.22C1722.75 1390.69 1725.94 1385.49 1726.95 1379.69L1727.03 1379.13L1793.19 930.736C1793.87 926.126 1793.13 921.42 1791.08 917.243L1790.88 916.841L1608.67 563.37C1604.72 555.717 1596.83 550.908 1588.22 550.908L1309.34 550.908C1301 550.908 1293.34 555.422 1289.28 562.661L1288.9 563.37L1106.68 916.841C1104.55 920.983 1103.72 925.674 1104.31 930.29L1104.37 930.736L1170.53 1379.13C1171.39 1384.97 1174.46 1390.24 1179.09 1393.87L1179.54 1394.22L1435.04 1584.56Z" stroke="url(#paint3_linear_3_108)" stroke-width="4"/>
<path opacity="0.0724638" d="M1385.31 1578.54C1393.01 1584.9 1403.9 1585.56 1412.3 1580.23L1412.7 1579.97L1676.16 1404.99C1681.08 1401.72 1684.55 1396.69 1685.86 1390.94L1685.98 1390.39L1774.89 950.313C1775.82 945.73 1775.32 940.977 1773.48 936.687L1773.3 936.274L1610.77 577.184C1607.22 569.351 1599.6 564.149 1591.02 563.699L1314.2 549.192C1305.88 548.756 1298 552.85 1293.57 559.852L1293.15 560.538L1093.97 900.672C1091.61 904.707 1090.54 909.362 1090.89 914.017L1090.92 914.468L1133.35 1361.42C1133.9 1367.3 1136.7 1372.74 1141.15 1376.6L1141.58 1376.97L1385.31 1578.54Z" stroke="url(#paint4_linear_3_108)" stroke-width="4"/>
<path opacity="0.0869565" d="M1336.22 1571.08C1343.56 1577.8 1354.37 1579.03 1363.02 1574.17L1363.43 1573.94L1633.95 1414.63C1639.05 1411.63 1642.79 1406.78 1644.4 1401.1L1644.55 1400.55L1755.53 969.942C1756.7 965.4 1756.45 960.612 1754.82 956.22L1754.66 955.796L1611.9 592.169C1608.76 584.177 1601.43 578.597 1592.89 577.7L1318.9 548.901C1310.62 548.032 1302.55 551.696 1297.75 558.44L1297.3 559.103L1082.05 885.102C1079.47 889.016 1078.14 893.624 1078.25 898.306L1078.27 898.759L1097.29 1343.03C1097.54 1348.94 1100.06 1354.52 1104.31 1358.61L1104.73 1359.01L1336.22 1571.08Z" stroke="url(#paint5_linear_3_108)" stroke-width="4"/>
<path opacity="0.101449" d="M1287.83 1562.24C1294.79 1569.31 1305.49 1571.1 1314.36 1566.73L1314.78 1566.51L1591.46 1423.13C1596.72 1420.4 1600.72 1415.75 1602.63 1410.16L1602.81 1409.62L1735.1 989.564C1736.52 985.076 1736.52 980.266 1735.11 975.783L1734.97 975.35L1612.01 608.26C1609.29 600.13 1602.27 594.19 1593.8 592.848L1323.35 550.013C1315.14 548.713 1306.9 551.94 1301.75 558.407L1301.26 559.043L1070.88 870.168C1068.08 873.95 1066.51 878.496 1066.38 883.192L1066.37 883.646L1062.38 1324.02C1062.32 1329.95 1064.56 1335.66 1068.6 1339.97L1069 1340.38L1287.83 1562.24Z" stroke="url(#paint6_linear_3_108)" stroke-width="4"/>
<path opacity="0.115942" d="M1240.2 1552.08C1246.79 1559.47 1257.34 1561.81 1266.41 1557.93L1266.84 1557.74L1548.74 1430.48C1554.15 1428.04 1558.4 1423.61 1560.61 1418.12L1560.82 1417.58L1713.63 1009.12C1715.29 1004.7 1715.54 999.881 1714.36 995.317L1714.24 994.877L1611.04 625.391C1608.74 617.145 1602.05 610.86 1593.67 609.08L1327.48 552.499C1319.37 550.775 1310.98 553.554 1305.5 559.727L1304.98 560.335L1060.42 855.903C1057.41 859.54 1055.6 864.012 1055.22 868.711L1055.18 869.166L1028.65 1304.46C1028.29 1310.39 1030.23 1316.22 1034.06 1320.73L1034.44 1321.17L1240.2 1552.08Z" stroke="url(#paint7_linear_3_108)" stroke-width="4"/>
<path opacity="0.130435" d="M1193.42 1540.65C1199.6 1548.33 1209.99 1551.21 1219.22 1547.84L1219.66 1547.68L1505.87 1436.7C1511.41 1434.55 1515.9 1430.34 1518.4 1424.96L1518.64 1424.44L1691.12 1028.56C1693.01 1024.22 1693.51 1019.4 1692.57 1014.77L1692.47 1014.32L1608.96 643.492C1607.08 635.152 1600.73 628.542 1592.47 626.329L1331.23 556.33C1323.23 554.187 1314.72 556.513 1308.93 562.373L1308.37 562.951L1050.63 842.341C1047.42 845.822 1045.36 850.207 1044.74 854.895L1044.68 855.35L996.12 1284.43C995.451 1290.34 997.096 1296.27 1000.7 1300.98L1001.05 1301.43L1193.42 1540.65Z" stroke="url(#paint8_linear_3_108)" stroke-width="4"/>
<path opacity="0.144928" d="M1147.54 1528C1153.31 1535.96 1163.49 1539.37 1172.86 1536.51L1173.31 1536.37L1462.89 1441.76C1468.55 1439.91 1473.27 1435.94 1476.06 1430.7L1476.32 1430.19L1667.58 1047.82C1669.71 1043.57 1670.46 1038.77 1669.75 1034.08L1669.68 1033.63L1605.7 662.493C1604.25 654.081 1598.26 647.163 1590.14 644.526L1334.52 561.471C1326.66 558.915 1318.05 560.783 1311.96 566.315L1311.38 566.862L1041.47 829.511C1038.06 832.826 1035.77 837.111 1034.9 841.776L1034.82 842.229L964.806 1263.99C963.83 1269.86 965.172 1275.88 968.534 1280.77L968.866 1281.24L1147.54 1528Z" stroke="url(#paint9_linear_3_108)" stroke-width="4"/>
<path opacity="0.15942" d="M1102.61 1514.2C1107.95 1522.42 1117.91 1526.34 1127.39 1524L1127.84 1523.88L1419.89 1445.7C1425.65 1444.15 1430.58 1440.43 1433.64 1435.34L1433.93 1434.84L1643.03 1066.86C1645.39 1062.71 1646.4 1057.94 1645.92 1053.2L1645.87 1052.74L1601.24 682.32C1600.22 673.858 1594.6 666.653 1586.65 663.599L1337.3 567.882C1329.59 564.923 1320.91 566.329 1314.53 571.517L1313.92 572.031L1032.89 817.442C1029.3 820.578 1026.78 824.752 1025.66 829.38L1025.56 829.829L934.721 1243.21C933.441 1249.03 934.475 1255.12 937.59 1260.19L937.898 1260.68L1102.61 1514.2Z" stroke="url(#paint10_linear_3_108)" stroke-width="4"/>
<path opacity="0.173913" d="M1058.69 1499.31C1063.6 1507.76 1073.3 1512.18 1082.87 1510.36L1083.32 1510.27L1376.9 1448.5C1382.75 1447.27 1387.88 1443.81 1391.22 1438.88L1391.53 1438.4L1617.5 1085.6C1620.08 1081.57 1621.34 1076.84 1621.1 1072.07L1621.07 1071.61L1595.53 702.898C1594.95 694.408 1589.72 686.937 1581.94 683.475L1339.48 575.523C1331.95 572.17 1323.22 573.111 1316.59 577.941L1315.95 578.42L1024.86 806.156C1021.09 809.104 1018.34 813.152 1016.98 817.733L1016.85 818.178L905.874 1222.17C904.292 1227.93 905.015 1234.07 907.875 1239.3L908.159 1239.8L1058.69 1499.31Z" stroke="url(#paint11_linear_3_108)" stroke-width="4"/>
<path opacity="0.188406" d="M1015.84 1483.4C1020.29 1492.06 1029.72 1496.96 1039.34 1495.67L1039.8 1495.61L1334 1450.19C1339.92 1449.27 1345.23 1446.09 1348.83 1441.33L1349.18 1440.87L1590.99 1104.01C1593.79 1100.11 1595.3 1095.43 1595.31 1090.64L1595.3 1090.18L1588.56 724.15C1588.4 715.655 1583.57 707.938 1576 704.081L1341.02 584.35C1333.69 580.613 1324.93 581.089 1318.06 585.547L1317.4 585.99L1017.32 795.677C1013.38 798.428 1010.41 802.339 1008.81 806.859L1008.66 807.298L878.271 1200.93C876.389 1206.61 876.797 1212.79 879.394 1218.17L879.652 1218.68L1015.84 1483.4Z" stroke="url(#paint12_linear_3_108)" stroke-width="4"/>
<path opacity="0.202899" d="M974.088 1466.54C978.089 1475.38 987.208 1480.75 996.856 1479.99L997.316 1479.95L1291.25 1450.78C1297.21 1450.18 1302.7 1447.29 1306.56 1442.72L1306.92 1442.27L1563.55 1122.04C1566.56 1118.27 1568.31 1113.66 1568.57 1108.86L1568.59 1108.39L1580.29 746C1580.56 737.522 1576.14 729.581 1568.8 725.34L1341.86 594.314C1334.74 590.206 1325.99 590.215 1318.9 594.289L1318.22 594.696L1010.23 786.024C1006.13 788.567 1002.94 792.33 1001.11 796.777L1000.93 797.21L851.911 1179.57C849.735 1185.16 849.827 1191.36 852.152 1196.87L852.384 1197.4L974.088 1466.54Z" stroke="url(#paint13_linear_3_108)" stroke-width="4"/>
<path opacity="0.217391" d="M933.486 1448.79C937.025 1457.8 945.817 1463.62 955.461 1463.38L955.921 1463.36L1248.69 1450.29C1254.69 1450.02 1260.33 1447.42 1264.43 1443.05L1264.82 1442.62L1535.19 1139.62C1538.41 1136.01 1540.4 1131.48 1540.9 1126.68L1540.94 1126.21L1570.69 768.37C1571.4 759.931 1567.4 751.788 1560.3 747.176L1341.93 605.366C1335.05 600.898 1326.33 600.443 1319.04 604.122L1318.34 604.491L1003.54 777.216C999.295 779.543 995.9 783.145 993.827 787.507L993.63 787.931L826.791 1158.16C824.324 1163.63 824.099 1169.85 826.147 1175.47L826.353 1176.02L933.486 1448.79Z" stroke="url(#paint14_linear_3_108)" stroke-width="4"/>
<path opacity="0.231884" d="M894.07 1430.24C897.14 1439.39 905.583 1445.63 915.193 1445.91L915.652 1445.92L1206.39 1448.73C1212.4 1448.79 1218.19 1446.49 1222.52 1442.34L1222.94 1441.94L1505.94 1156.72C1509.36 1153.28 1511.6 1148.84 1512.34 1144.05L1512.41 1143.59L1559.77 791.18C1560.89 782.801 1557.33 774.48 1550.49 769.51L1341.2 617.453C1334.57 612.639 1325.91 611.723 1318.44 614.998L1317.72 615.327L997.199 769.266C992.823 771.368 989.227 774.798 986.922 779.062L986.704 779.477L802.905 1136.77C800.154 1142.11 799.61 1148.32 801.375 1154.05L801.553 1154.61L894.07 1430.24Z" stroke="url(#paint15_linear_3_108)" stroke-width="4"/>
<path opacity="0.246377" d="M855.871 1410.95C858.468 1420.21 866.541 1426.86 876.09 1427.66L876.546 1427.7L1164.39 1446.15C1170.4 1446.53 1176.32 1444.54 1180.87 1440.62L1181.31 1440.24L1475.84 1173.3C1479.45 1170.03 1481.93 1165.7 1482.92 1160.93L1483.01 1160.47L1547.49 814.352C1549.04 806.055 1545.91 797.578 1539.35 792.266L1339.61 630.518C1333.26 625.373 1324.67 623.999 1317.05 626.862L1316.32 627.152L991.168 762.186C986.667 764.055 982.881 767.303 980.349 771.457L980.108 771.861L780.241 1115.46C777.212 1120.67 776.35 1126.85 777.826 1132.67L777.976 1133.24L855.871 1410.95Z" stroke="url(#paint16_linear_3_108)" stroke-width="4"/>
<path opacity="0.26087" d="M818.919 1391.01C821.039 1400.35 828.722 1407.39 838.181 1408.7L838.632 1408.76L1122.76 1442.55C1128.75 1443.27 1134.78 1441.6 1139.54 1437.91L1140 1437.55L1444.93 1189.3C1448.72 1186.22 1451.43 1182 1452.66 1177.28L1452.78 1176.82L1533.86 837.807C1535.82 829.613 1533.14 821.003 1526.88 815.365L1337.12 644.507C1331.06 639.045 1322.57 637.22 1314.82 639.662L1314.07 639.912L985.395 755.984C980.783 757.613 976.814 760.669 974.06 764.701L973.797 765.095L758.784 1094.31C755.484 1099.36 754.306 1105.5 755.489 1111.4L755.611 1111.97L818.919 1391.01Z" stroke="url(#paint17_linear_3_108)" stroke-width="4"/>
<path opacity="0.275362" d="M783.234 1370.48C784.876 1379.89 792.152 1387.28 801.492 1389.1L801.938 1389.19L1081.53 1437.98C1087.49 1439.02 1093.61 1437.67 1098.57 1434.24L1099.04 1433.9L1413.24 1204.7C1417.2 1201.8 1420.14 1197.72 1421.61 1193.04L1421.75 1192.59L1518.87 861.466C1521.24 853.395 1519.01 844.676 1513.06 838.729L1333.69 659.358C1327.93 653.596 1319.57 651.327 1311.71 653.342L1310.95 653.55L979.831 750.669C975.119 752.051 970.977 754.903 968.007 758.803L967.723 759.184L738.515 1073.38C734.952 1078.26 733.46 1084.34 734.346 1090.31L734.438 1090.89L783.234 1370.48Z" stroke="url(#paint18_linear_3_108)" stroke-width="4"/>
<path opacity="0.289855" d="M748.839 1349.45C750.001 1358.89 756.851 1366.62 766.046 1368.94L766.486 1369.05L1040.77 1432.46C1046.67 1433.83 1052.86 1432.81 1058.01 1429.64L1058.5 1429.33L1380.8 1219.44C1384.93 1216.75 1388.09 1212.8 1389.8 1208.19L1389.97 1207.74L1502.52 885.25C1505.29 877.324 1503.52 868.52 1497.9 862.281L1329.28 675.011C1323.84 668.967 1315.63 666.261 1307.69 667.845L1306.92 668.012L974.428 746.243C969.63 747.372 965.325 750.011 962.144 753.767L961.84 754.134L719.413 1052.73C715.596 1057.43 713.791 1063.44 714.377 1069.46L714.441 1070.04L748.839 1349.45Z" stroke="url(#paint19_linear_3_108)" stroke-width="4"/>
<path opacity="0.304348" d="M715.747 1327.98C716.431 1337.44 722.84 1345.49 731.862 1348.29L732.293 1348.42L1000.51 1426.03C1006.33 1427.72 1012.58 1427.03 1017.9 1424.13L1018.41 1423.85L1347.67 1233.49C1351.95 1231.02 1355.32 1227.23 1357.28 1222.69L1357.46 1222.25L1484.83 909.082C1487.98 901.32 1486.67 892.455 1481.4 885.943L1323.86 691.403C1318.75 685.095 1310.71 681.962 1302.71 683.112L1301.94 683.236L969.138 742.708C964.266 743.578 959.809 745.997 956.425 749.597L956.101 749.949L701.451 1032.44C697.389 1036.94 695.277 1042.87 695.56 1048.91L695.595 1049.5L715.747 1327.98Z" stroke="url(#paint20_linear_3_108)" stroke-width="4"/>
<path opacity="0.318841" d="M683.966 1306.17C684.174 1315.61 690.128 1323.94 698.951 1327.22L699.374 1327.37L960.788 1418.72C966.526 1420.73 972.817 1420.37 978.288 1417.76L978.815 1417.5L1313.88 1246.83C1318.31 1244.57 1321.88 1240.95 1324.07 1236.5L1324.28 1236.06L1465.79 932.886C1469.33 925.307 1468.47 916.405 1463.56 909.638L1317.4 708.473C1312.64 701.918 1304.79 698.367 1296.76 699.081L1295.98 699.164L963.913 740.062C958.981 740.669 954.383 742.858 950.803 746.292L950.459 746.628L684.601 1012.55C680.303 1016.85 677.887 1022.67 677.866 1028.73L677.872 1029.32L683.966 1306.17Z" stroke="url(#paint21_linear_3_108)" stroke-width="4"/>
<path opacity="0.333333" d="M653.505 1284.07C653.24 1293.48 658.725 1302.08 667.324 1305.82L667.736 1305.99L921.659 1410.57C927.29 1412.89 933.602 1412.88 939.214 1410.56L939.755 1410.33L1279.47 1259.42C1284.03 1257.39 1287.81 1253.94 1290.23 1249.58L1290.46 1249.16L1445.43 956.585C1449.33 949.208 1448.94 940.294 1444.39 933.293L1309.87 726.154C1305.47 719.372 1297.84 715.417 1289.8 715.694L1289.02 715.734L958.705 738.302C953.727 738.642 948.999 740.592 945.231 743.85L944.868 744.169L668.829 993.136C664.307 997.215 661.593 1002.91 661.267 1008.98L661.243 1009.57L653.505 1284.07Z" stroke="url(#paint22_linear_3_108)" stroke-width="4"/>
<path opacity="0.347826" d="M624.362 1261.78C623.629 1271.13 628.635 1279.96 636.986 1284.15L637.386 1284.34L883.155 1401.63C888.661 1404.26 894.978 1404.59 900.717 1402.56L901.27 1402.36L1244.5 1271.22C1249.18 1269.43 1253.15 1266.17 1255.8 1261.92L1256.05 1261.51L1423.76 980.106C1428.02 972.95 1428.09 964.046 1423.92 956.832L1301.26 744.381C1297.23 737.392 1289.84 733.046 1281.8 732.886L1281.03 732.883L953.468 737.421C948.458 737.49 943.611 739.194 939.663 742.265L939.284 742.566L654.101 974.247C649.366 978.094 646.359 983.66 645.727 989.712L645.674 990.3L624.362 1261.78Z" stroke="url(#paint23_linear_3_108)" stroke-width="4"/>
<path opacity="0.362319" d="M596.536 1239.37C595.341 1248.63 599.857 1257.67 607.935 1262.29L608.323 1262.5L845.313 1391.93C850.677 1394.86 856.98 1395.53 862.828 1393.81L863.392 1393.63L1209.01 1282.22C1213.8 1280.68 1217.95 1277.61 1220.82 1273.49L1221.1 1273.08L1400.81 1003.38C1405.42 996.459 1405.93 987.591 1402.16 980.183L1291.54 763.089C1287.89 755.912 1280.75 751.189 1272.76 750.594L1271.98 750.55L948.155 737.41C943.127 737.206 938.176 738.657 934.057 741.533L933.661 741.816L640.377 955.941C635.441 959.546 632.148 964.962 631.212 970.986L631.13 971.57L596.536 1239.37Z" stroke="url(#paint24_linear_3_108)" stroke-width="4"/>
<path opacity="0.376812" d="M570.019 1216.91C568.368 1226.06 572.386 1235.29 580.17 1240.31L580.543 1240.55L808.163 1381.51C813.37 1384.74 819.64 1385.75 825.583 1384.34L826.157 1384.2L1173.05 1292.4C1177.93 1291.1 1182.25 1288.24 1185.34 1284.25L1185.64 1283.86L1376.6 1026.33C1381.54 1019.66 1382.51 1010.86 1379.13 1003.28L1280.71 782.212C1277.44 774.869 1270.58 769.783 1262.65 768.757L1261.88 768.67L942.722 738.258C937.691 737.779 932.646 738.971 928.366 741.641L927.953 741.904L627.617 938.268C622.491 941.619 618.921 946.871 617.682 952.851L617.569 953.433L570.019 1216.91Z" stroke="url(#paint25_linear_3_108)" stroke-width="4"/>
<path opacity="0.391304" d="M544.799 1194.48C542.701 1203.49 546.214 1212.87 553.682 1218.3L554.04 1218.55L771.74 1370.43C776.772 1373.94 782.992 1375.3 789.013 1374.2L789.595 1374.09L1136.66 1301.72C1141.63 1300.68 1146.11 1298.03 1149.42 1294.19L1149.73 1293.81L1351.16 1048.89C1356.42 1042.5 1357.84 1033.77 1354.87 1026.04L1268.75 801.682C1265.87 794.194 1259.31 788.762 1251.46 787.309L1250.7 787.181L937.124 739.952C932.104 739.196 926.979 740.122 922.547 742.579L922.121 742.822L615.777 921.275C610.475 924.364 606.634 929.439 605.094 935.362L604.952 935.937L604.952 935.938L544.799 1194.48Z" stroke="url(#paint26_linear_3_108)" stroke-width="4"/>
<path opacity="0.405797" d="M520.859 1172.14C518.323 1181.01 521.327 1190.51 528.458 1196.31L528.8 1196.58L736.069 1358.73C740.911 1362.52 747.061 1364.21 753.144 1363.43L753.732 1363.35L1099.9 1310.18C1104.94 1309.41 1109.58 1306.98 1113.08 1303.29L1113.42 1302.93L1324.53 1071C1330.09 1064.89 1331.95 1056.27 1329.4 1048.41L1255.65 821.435C1253.18 813.823 1246.93 808.063 1239.19 806.188L1238.43 806.019L931.316 742.475C926.323 741.442 921.133 742.099 916.56 744.333L916.118 744.555L604.809 905.013C599.344 907.83 595.242 912.713 593.404 918.562L593.234 919.132L520.859 1172.14Z" stroke="url(#paint27_linear_3_108)" stroke-width="4"/>
<path opacity="0.42029" d="M498.18 1149.98C495.218 1158.67 497.708 1168.27 504.482 1174.42L504.808 1174.71L701.174 1346.46C705.811 1350.51 711.874 1352.53 718.001 1352.08L718.594 1352.03L1062.82 1317.76C1067.92 1317.25 1072.69 1315.06 1076.4 1311.54L1076.75 1311.19L1296.75 1092.59C1302.6 1086.78 1304.89 1078.29 1302.76 1070.33L1241.42 841.404C1239.35 833.691 1233.44 827.62 1225.82 825.332L1225.08 825.122L925.259 745.811C920.307 744.501 915.064 744.883 910.36 746.887L909.907 747.086L594.665 889.522C589.052 892.059 584.698 896.737 582.566 902.499L582.366 903.06L498.18 1149.98Z" stroke="url(#paint28_linear_3_108)" stroke-width="4"/>
<path opacity="0.434783" d="M476.739 1128.05C473.361 1136.54 475.336 1146.21 481.735 1152.7L482.044 1153.01L667.078 1333.65C671.495 1337.96 677.452 1340.31 683.607 1340.19L684.204 1340.17L1025.46 1324.45C1030.6 1324.22 1035.51 1322.26 1039.41 1318.91L1039.78 1318.58L1267.86 1113.61C1273.97 1108.11 1276.69 1099.76 1274.98 1091.72L1226.05 861.525C1224.39 853.732 1218.83 847.37 1211.37 844.675L1210.64 844.426L918.911 749.938C914.015 748.352 908.734 748.456 903.911 750.223L903.445 750.399L585.296 874.844C579.548 877.092 574.952 881.553 572.53 887.212L572.301 887.764L476.739 1128.05Z" stroke="url(#paint29_linear_3_108)" stroke-width="4"/>
<path opacity="0.449275" d="M456.507 1106.43C452.727 1114.71 454.186 1124.42 460.194 1131.22L460.483 1131.54L633.801 1320.37C637.983 1324.93 643.817 1327.6 649.982 1327.8L650.579 1327.82L987.888 1330.24C993.059 1330.28 998.086 1328.58 1002.16 1325.41L1002.55 1325.1L1237.89 1133.99C1244.26 1128.81 1247.39 1120.64 1246.11 1112.53L1209.55 881.732C1208.31 873.881 1203.11 867.248 1195.82 864.158L1195.11 863.869L912.232 754.833C907.407 752.973 902.102 752.795 897.171 754.318L896.695 754.472L576.645 861.014C570.777 862.968 565.951 867.199 563.243 872.742L562.989 873.282L456.507 1106.43Z" stroke="url(#paint30_linear_3_108)" stroke-width="4"/>
<path opacity="0.463768" d="M437.454 1085.18C433.285 1093.22 434.228 1102.95 439.83 1110.03L440.101 1110.37L601.356 1306.66C605.29 1311.45 610.984 1314.44 617.142 1314.97L617.74 1315.02L950.142 1335.13C955.328 1335.44 960.462 1333.99 964.712 1331.02L965.121 1330.73L1206.91 1153.67C1213.51 1148.84 1217.05 1140.85 1216.19 1132.71L1191.94 901.963C1191.11 894.076 1186.28 887.191 1179.19 883.716L1178.5 883.391L905.185 760.474C900.446 758.343 895.131 757.881 890.104 759.155L889.618 759.283L568.661 848.068C562.688 849.72 557.643 853.71 554.657 859.122L554.374 859.65L437.454 1085.18Z" stroke="url(#paint31_linear_3_108)" stroke-width="4"/>
<path opacity="0.478261" d="M419.545 1064.36C415.002 1072.15 415.433 1081.86 420.614 1089.21L420.865 1089.56L569.761 1292.57C573.433 1297.58 578.969 1300.88 585.102 1301.74L585.697 1301.82L912.279 1339.11C917.466 1339.7 922.695 1338.51 927.109 1335.74L927.534 1335.47L1174.95 1172.62C1181.77 1168.13 1185.7 1160.36 1185.27 1152.2L1173.22 922.155C1172.8 914.255 1168.36 907.14 1161.49 903.292L1160.81 902.93L897.732 766.834C893.096 764.435 887.785 763.688 882.675 764.705L882.181 764.809L561.287 836.035C555.224 837.381 549.972 841.118 546.713 846.385L546.404 846.899L419.545 1064.36Z" stroke="url(#paint32_linear_3_108)" stroke-width="4"/>
<path opacity="0.492754" d="M402.741 1044.04C397.84 1051.56 397.764 1061.22 402.512 1068.81L402.741 1069.17L539.022 1278.15C542.421 1283.36 547.782 1286.97 553.873 1288.16L554.465 1288.26L874.348 1342.18C879.522 1343.05 884.833 1342.13 889.403 1339.57L889.842 1339.32L1142.07 1190.78C1149.09 1186.64 1153.4 1179.11 1153.4 1170.96L1153.4 942.247C1153.4 934.356 1149.36 927.034 1142.72 922.826L1142.07 922.429L889.842 773.886C885.321 771.224 880.03 770.189 874.849 770.945L874.348 771.025L554.465 824.943C548.328 825.977 542.881 829.451 539.357 834.56L539.022 835.059L402.741 1044.04Z" stroke="url(#paint33_linear_3_108)" stroke-width="4"/>
<path opacity="0.507246" d="M387.004 1024.27C381.76 1031.49 381.182 1041.09 385.486 1048.89L385.694 1049.26L509.149 1263.45C512.263 1268.85 517.433 1272.75 523.463 1274.27L524.05 1274.41L836.401 1344.35C841.547 1345.5 846.927 1344.85 851.642 1342.51L852.096 1342.28L1108.33 1208.1C1115.53 1204.33 1120.2 1197.04 1120.63 1188.93L1132.51 962.181C1132.93 954.32 1129.29 946.814 1122.91 942.26L1122.29 941.829L881.48 781.6C877.09 778.679 871.834 777.358 866.594 777.849L866.087 777.903L548.136 814.813C541.942 815.532 536.314 818.734 532.532 823.67L532.171 824.153L387.004 1024.27Z" stroke="url(#paint34_linear_3_108)" stroke-width="4"/>
<path opacity="0.521739" d="M372.288 1005.1C366.72 1012.02 365.645 1021.52 369.496 1029.5L369.683 1029.88L480.146 1248.52C482.965 1254.1 487.926 1258.28 493.88 1260.12L494.459 1260.29L798.488 1345.62C803.591 1347.05 809.026 1346.68 813.877 1344.57L814.345 1344.36L1073.78 1224.55C1081.14 1221.15 1086.17 1214.13 1087.01 1206.07L1110.58 981.898C1111.4 974.09 1108.18 966.421 1102.07 961.537L1101.48 961.074L872.616 789.945C868.371 786.771 863.164 785.164 857.879 785.386L857.367 785.414L542.242 805.666C536.006 806.067 530.21 808.987 526.178 813.74L525.794 814.205L372.288 1005.1Z" stroke="url(#paint35_linear_3_108)" stroke-width="4"/>
<path opacity="0.536232" d="M358.547 986.583C352.671 993.189 351.111 1002.57 354.5 1010.71L354.665 1011.09L452.015 1233.41C454.527 1239.14 459.265 1243.6 465.125 1245.76L465.696 1245.96L760.657 1346C765.703 1347.71 771.181 1347.61 776.157 1345.74L776.638 1345.55L1038.48 1240.09C1045.98 1237.07 1051.34 1230.33 1052.61 1222.35L1087.61 1001.34C1088.84 993.609 1086.04 985.803 1080.23 980.605L1079.66 980.11L863.22 798.891C859.135 795.47 853.993 793.578 848.675 793.527L848.16 793.528L536.723 797.52C530.46 797.601 524.511 800.23 520.239 804.786L519.83 805.233L358.547 986.583Z" stroke="url(#paint36_linear_3_108)" stroke-width="4"/>
<path opacity="0.550725" d="M345.732 968.771C339.568 975.046 337.53 984.276 340.451 992.547L340.595 992.94L424.756 1218.16C426.953 1224.04 431.453 1228.76 437.201 1231.24L437.762 1231.47L722.96 1345.5C727.934 1347.49 733.441 1347.68 738.531 1346.04L739.022 1345.88L1002.5 1254.68C1010.12 1252.04 1015.8 1245.61 1017.47 1237.72L1063.65 1020.46C1065.28 1012.82 1062.91 1004.9 1057.41 999.408L1056.87 998.884L853.266 808.402C849.354 804.742 844.292 802.566 838.956 802.24L838.438 802.214L531.517 790.386C525.245 790.145 519.156 792.476 514.654 796.824L514.223 797.251L345.732 968.771Z" stroke="url(#paint37_linear_3_108)" stroke-width="4"/>
<path opacity="0.565217" d="M333.791 951.706C327.46 957.543 324.936 966.408 327.191 974.67L327.425 975.468L398.364 1202.84C400.237 1208.84 404.485 1213.81 410.105 1216.59L410.653 1216.86L685.442 1344.13C690.33 1346.4 695.851 1346.87 701.044 1345.49L701.546 1345.35L965.889 1268.29C973.605 1266.04 979.588 1259.93 981.668 1252.16L1038.73 1039.2C1040.75 1031.68 1038.82 1023.67 1033.64 1017.9L1033.13 1017.35L842.728 818.444C839.004 814.553 834.036 812.096 828.695 811.493L828.177 811.441L526.563 784.273C520.298 783.709 514.085 785.735 509.362 789.863L508.91 790.27L333.791 951.706Z" stroke="url(#paint38_linear_3_108)" stroke-width="4"/>
<path opacity="0.57971" d="M322.673 935.43C316.096 940.917 313.13 949.585 314.918 957.915L315.105 958.72L372.833 1187.47C374.376 1193.58 378.357 1198.79 383.832 1201.88L384.366 1202.17L648.151 1341.92C652.937 1344.46 658.459 1345.22 663.743 1344.09L664.254 1343.97L928.713 1280.9C936.509 1279.04 942.776 1273.26 945.252 1265.64L1012.87 1057.52C1015.27 1050.14 1013.78 1042.06 1008.95 1036.03L1008.47 1035.45L831.585 828.981C828.061 824.868 823.202 822.135 817.87 821.253L817.352 821.173L521.801 779.187C515.56 778.301 509.237 780.016 504.305 783.914L503.832 784.298L322.673 935.43Z" stroke="url(#paint39_linear_3_108)" stroke-width="4"/>
<path opacity="0.594203" d="M312.319 919.981C305.518 925.107 302.124 933.556 303.443 941.925L303.585 942.735L348.156 1172.12C349.361 1178.32 353.062 1183.75 358.376 1187.13L358.895 1187.45L611.133 1338.88C615.803 1341.68 621.311 1342.73 626.675 1341.86L627.194 1341.77L891.04 1292.49C898.895 1291.03 905.426 1285.59 908.289 1278.13L986.122 1075.36C988.896 1068.14 987.844 1060.02 983.361 1053.75L982.917 1053.14L819.814 839.977C816.504 835.651 811.77 832.646 806.46 831.485L805.944 831.378L517.17 775.131C510.968 773.923 504.552 775.32 499.422 778.977L498.93 779.339L312.319 919.981Z" stroke="url(#paint40_linear_3_108)" stroke-width="4"/>
<path opacity="0.608696" d="M302.677 905.39C295.669 910.148 291.862 918.356 292.713 926.739L292.81 927.551L324.319 1156.82C325.182 1163.1 328.591 1168.73 333.727 1172.4L334.23 1172.75L574.431 1335.03C578.97 1338.1 584.45 1339.44 589.882 1338.83L590.408 1338.76L852.931 1303.04C860.825 1301.97 867.601 1296.88 870.841 1289.6L958.513 1092.69C961.652 1085.64 961.04 1077.5 956.922 1071.01L956.513 1070.39L807.397 851.395C804.314 846.867 799.719 843.593 794.446 842.152L793.933 842.019L512.609 772.102C506.464 770.574 499.97 771.65 494.653 775.057L494.142 775.394L302.677 905.39Z" stroke="url(#paint41_linear_3_108)" stroke-width="4"/>
<path opacity="0.623188" d="M293.684 891.69C286.492 896.071 282.287 904.017 282.673 912.386L282.725 913.198L301.311 1141.63C301.826 1147.95 304.931 1153.77 309.875 1157.73L310.359 1158.1L538.089 1330.4C542.483 1333.72 547.92 1335.35 553.407 1335.01L553.938 1334.97L814.454 1312.53C822.366 1311.85 829.367 1307.13 832.973 1300.06L930.088 1109.46C933.58 1102.6 933.408 1094.47 929.667 1087.79L929.294 1087.14L794.318 863.196C791.474 858.477 787.034 854.94 781.811 853.221L781.303 853.061L508.059 770.094C501.986 768.25 495.43 769.001 489.939 772.148L489.41 772.46L293.684 891.69Z" stroke="url(#paint42_linear_3_108)" stroke-width="4"/>
<path opacity="0.637681" d="M285.282 878.906C277.927 882.904 273.344 890.568 273.266 898.898L273.274 899.706L279.115 1126.57C279.279 1132.93 282.068 1138.93 286.804 1143.15L287.268 1143.55L502.146 1325C506.381 1328.58 511.761 1330.5 517.292 1330.43L517.828 1330.41L775.673 1320.96C783.584 1320.67 790.79 1316.33 794.748 1309.47L900.888 1125.63C904.722 1118.99 904.987 1110.89 901.632 1104.03L901.296 1103.37L780.564 875.342C777.97 870.443 773.698 866.651 768.539 864.654L768.036 864.466L503.459 769.101C497.474 766.944 490.873 767.364 485.22 770.244L484.677 770.531L285.282 878.906Z" stroke="url(#paint43_linear_3_108)" stroke-width="4"/>
<path opacity="0.652174" d="M277.412 867.061C269.914 870.67 264.97 878.035 264.436 886.298L264.398 887.1L257.712 1111.71C257.522 1118.08 259.987 1124.24 264.5 1128.72L264.942 1129.14L466.643 1318.88C470.706 1322.7 476.013 1324.91 481.575 1325.11L482.115 1325.13L736.653 1328.31C744.543 1328.41 751.933 1324.46 756.23 1317.84L870.958 1141.17C875.121 1134.76 875.819 1126.72 872.859 1119.71L872.561 1119.03L766.122 887.794C763.79 882.727 759.698 878.686 754.618 876.414L754.123 876.2L498.752 769.109C492.872 766.644 486.241 766.733 480.441 769.337L479.882 769.596L277.412 867.061Z" stroke="url(#paint44_linear_3_108)" stroke-width="4"/>
<path opacity="0.666667" d="M270.012 856.174C262.393 859.391 257.107 866.438 256.123 874.608L256.041 875.403L237.082 1097.07C236.538 1103.44 238.668 1109.73 242.944 1114.46L243.364 1114.91L431.617 1312.06C435.492 1316.12 440.714 1318.61 446.294 1319.09L446.836 1319.13L697.462 1334.59C705.311 1335.07 712.862 1331.51 717.485 1325.15L840.343 1156.05C844.821 1149.89 845.947 1141.92 843.39 1134.78L843.131 1134.09L750.981 900.511C748.922 895.29 745.026 891.008 740.038 888.463L739.552 888.222L493.882 770.105C488.121 767.336 481.478 767.092 475.542 769.412L474.97 769.645L270.012 856.174Z" stroke="url(#paint45_linear_3_108)" stroke-width="4"/>
<path opacity="0.681159" d="M263.019 846.259C255.301 849.08 249.693 855.795 248.267 863.848L248.142 864.631L217.204 1082.69C216.304 1089.04 218.091 1095.46 222.117 1100.42L222.514 1100.89L397.104 1304.57C400.779 1308.86 405.9 1311.64 411.485 1312.39L412.027 1312.46L658.162 1339.8C665.951 1340.66 673.644 1337.5 678.575 1331.41L809.091 1170.24C813.869 1164.34 815.418 1156.47 813.268 1149.23L813.049 1148.53L735.135 913.454C733.358 908.093 729.672 903.579 724.79 900.764L724.313 900.498L488.79 772.069C483.165 769.002 476.525 768.424 470.468 770.455L469.884 770.659L263.019 846.259Z" stroke="url(#paint46_linear_3_108)" stroke-width="4"/>
<path opacity="0.695652" d="M256.373 837.33C248.577 839.754 242.669 846.12 240.811 854.03L240.644 854.8L198.051 1068.62C196.796 1074.92 198.234 1081.45 201.996 1086.63L202.367 1087.12L363.136 1296.44C366.599 1300.95 371.605 1304.01 377.182 1305.05L377.723 1305.14L618.819 1343.94C626.528 1345.18 634.34 1342.42 639.565 1336.62L777.25 1183.7C782.312 1178.08 784.276 1170.34 782.54 1163.01L782.36 1162.31L718.577 926.585C717.093 921.098 713.63 916.36 708.867 913.28L708.403 912.988L483.424 774.979C477.95 771.621 471.33 770.709 465.166 772.445L464.571 772.62L256.373 837.33Z" stroke="url(#paint47_linear_3_108)" stroke-width="4"/>
<path opacity="0.710145" d="M250.013 829.392C242.159 831.417 235.972 837.422 233.692 845.166L233.484 845.921L179.599 1054.89C177.992 1061.12 179.073 1067.73 182.56 1073.12L182.904 1073.64L329.746 1287.72C332.983 1292.44 337.86 1295.78 343.416 1297.09L343.955 1297.21L579.496 1347.02C587.107 1348.63 595.016 1346.28 600.517 1340.78L744.87 1196.42C750.199 1191.1 752.569 1183.51 751.249 1176.12L751.11 1175.4L701.307 939.863C700.123 934.264 696.896 929.314 692.266 925.972L691.814 925.654L477.73 778.812C472.422 775.171 465.839 773.926 459.582 775.36L458.978 775.507L250.013 829.392Z" stroke="url(#paint48_linear_3_108)" stroke-width="4"/>
<path opacity="0.724638" d="M243.875 822.45C235.985 824.078 229.542 829.708 226.854 837.263L226.605 837.999L161.82 1041.52C159.863 1047.67 160.581 1054.35 163.78 1059.93L164.097 1060.47L296.964 1278.44C299.962 1283.36 304.694 1286.97 310.216 1288.56L310.753 1288.71L540.254 1349.05C547.75 1351.02 555.734 1349.09 561.493 1343.9L712 1208.38C717.58 1203.36 720.345 1195.94 719.442 1188.52L719.344 1187.8L683.32 953.249C682.445 947.554 679.467 942.402 674.983 938.804L674.545 938.461L471.659 783.539C466.53 779.623 460 778.047 453.666 779.176L453.053 779.294L243.875 822.45Z" stroke="url(#paint49_linear_3_108)" stroke-width="4"/>
<path opacity="0.73913" d="M237.897 816.504C229.993 817.736 223.316 822.981 220.233 830.323L219.947 831.04L144.684 1028.56C142.381 1034.6 142.733 1041.33 145.634 1047.09L145.922 1047.65L264.813 1268.63C267.562 1273.74 272.137 1277.61 277.612 1279.49L278.145 1279.67L501.156 1350.06C508.517 1352.39 516.554 1350.86 522.553 1346L678.691 1219.56C684.503 1214.86 687.652 1207.63 687.169 1200.2L687.111 1199.48L664.62 966.705C664.062 960.93 661.343 955.586 657.02 951.738L656.596 951.37L465.16 789.131C460.225 784.949 453.765 783.044 447.367 783.864L446.748 783.952L237.897 816.504Z" stroke="url(#paint50_linear_3_108)" stroke-width="4"/>
<path opacity="0.753623" d="M232.021 811.549C224.123 812.388 217.236 817.239 213.774 824.347L213.45 825.042L128.16 1016.03C125.516 1021.95 125.498 1028.7 128.09 1034.63L128.349 1035.2L233.322 1258.34C235.809 1263.63 240.212 1267.76 245.627 1269.92L246.154 1270.12L462.259 1350.06C469.47 1352.73 477.538 1351.62 483.758 1347.1L644.994 1229.95C651.02 1225.57 654.541 1218.56 654.474 1211.14L654.457 1210.42L645.208 980.19C644.974 974.352 642.527 968.829 638.377 964.736L637.97 964.345L458.188 795.556C453.46 791.117 447.086 788.887 440.639 789.395L440.016 789.452L232.021 811.549Z" stroke="url(#paint51_linear_3_108)" stroke-width="4"/>
<path opacity="0.768116" d="M226.185 807.58C218.314 808.03 211.241 812.477 207.416 819.331L207.057 820.002L112.218 1003.96C109.238 1009.73 108.848 1016.49 111.123 1022.56L111.351 1023.15L202.51 1247.61C204.725 1253.06 208.942 1257.45 214.285 1259.88L214.805 1260.11L423.623 1349.07C430.667 1352.08 438.743 1351.37 445.165 1347.2L610.961 1239.54C617.182 1235.5 621.06 1228.71 621.408 1221.33L621.431 1220.62L625.092 993.666C625.187 987.782 623.023 982.092 619.058 977.763L618.669 977.348L450.697 802.776C446.189 798.091 439.917 795.539 433.437 795.733L432.809 795.761L226.185 807.58Z" stroke="url(#paint52_linear_3_108)" stroke-width="4"/>
<path opacity="0.782609" d="M220.332 804.584C212.507 804.65 205.272 808.689 201.102 815.269L200.708 815.914L96.8209 992.367C93.5142 997.983 92.7508 1004.73 94.6988 1010.93L94.8958 1011.53L172.398 1236.47C174.33 1242.08 178.348 1246.71 183.605 1249.42L184.118 1249.68L385.301 1347.13C392.163 1350.45 400.226 1350.16 406.829 1346.35L576.642 1248.31C583.039 1244.61 587.259 1238.08 588.018 1230.76L588.082 1230.05L604.277 1007.1C604.707 1001.18 602.836 995.342 599.07 990.783L598.699 990.345L442.646 810.755C438.37 805.835 432.216 802.967 425.718 802.844L425.089 802.841L220.332 804.584Z" stroke="url(#paint53_linear_3_108)" stroke-width="4"/>
<path opacity="0.797101" d="M214.404 802.548C206.645 802.237 199.272 805.86 194.775 812.149L194.349 812.766L81.9385 981.284C78.3124 986.72 77.1747 993.433 78.7887 999.745L78.9536 1000.35L143.004 1224.98C144.642 1230.72 148.449 1235.6 153.606 1238.58L154.11 1238.86L347.35 1344.26C354.014 1347.89 362.042 1348 368.805 1344.56L542.089 1256.26C548.64 1252.93 553.188 1246.66 554.353 1239.43L554.456 1238.73L582.774 1020.45C583.543 1014.52 581.976 1008.54 578.42 1003.76L578.069 1003.3L433.994 819.452C429.963 814.309 423.942 811.131 417.442 810.692L416.811 810.658L214.404 802.548Z" stroke="url(#paint54_linear_3_108)" stroke-width="4"/>
<path opacity="0.811594" d="M208.343 801.454C200.67 800.773 193.184 803.978 188.38 809.958L187.924 810.545L67.5335 970.729C63.5972 975.966 62.0865 982.624 63.3601 989.031L63.4923 989.65L114.342 1213.17C115.677 1219.04 119.258 1224.14 124.305 1227.4L124.798 1227.71L309.82 1340.48C316.272 1344.42 324.243 1344.93 331.146 1341.86L507.351 1263.41C514.038 1260.43 518.894 1254.45 520.459 1247.33L520.601 1246.64L560.593 1033.68C561.704 1027.76 560.451 1021.65 557.116 1016.66L556.787 1016.18L424.705 828.827C420.93 823.473 415.058 819.991 408.57 819.234L407.94 819.17L208.343 801.454Z" stroke="url(#paint55_linear_3_108)" stroke-width="4"/>
<path opacity="0.826087" d="M202.098 801.281C194.529 800.238 186.954 803.024 181.864 808.679L181.378 809.235L53.5701 960.719C49.3345 965.739 47.4538 972.322 48.3805 978.804L48.479 979.432L86.4235 1201.09C87.4473 1207.07 90.791 1212.4 95.7133 1215.92L96.1953 1216.25L272.759 1335.85C278.985 1340.07 286.88 1340.98 293.9 1338.28L472.48 1269.73C479.281 1267.12 484.43 1261.45 486.386 1254.46L486.565 1253.78L537.749 1046.75C539.205 1040.86 538.273 1034.64 535.172 1029.45L534.865 1028.95L414.745 838.835C411.237 833.282 405.528 829.502 399.068 828.43L398.441 828.335L202.098 801.281Z" stroke="url(#paint56_linear_3_108)" stroke-width="4"/>
<path opacity="0.84058" d="M195.613 802.008C188.166 800.612 180.527 802.975 175.173 808.292L174.662 808.815L40.0127 951.27C35.489 956.056 33.2413 962.543 33.8164 969.083L33.8805 969.716L59.2591 1188.78C59.963 1194.86 63.0564 1200.4 67.8422 1204.18L68.3116 1204.54L236.214 1330.4C242.202 1334.89 250 1336.18 257.117 1333.87L437.524 1275.25C444.419 1273.01 449.84 1267.66 452.178 1260.82L452.395 1260.16L514.253 1059.64C516.056 1053.8 515.455 1047.48 512.599 1042.09L512.315 1041.58L404.083 849.43C400.851 843.693 395.32 839.624 388.904 838.237L388.28 838.111L195.613 802.008Z" stroke="url(#paint57_linear_3_108)" stroke-width="4"/>
<path opacity="0.855072" d="M188.84 803.604C181.532 801.866 173.853 803.809 168.257 808.773L167.721 809.262L26.8244 942.397C22.0252 946.931 19.4133 953.302 19.633 959.881L19.6631 960.518L32.8548 1176.29C33.2312 1182.45 36.0635 1188.19 40.7006 1192.23L41.1548 1192.61L200.229 1324.16C205.967 1328.91 213.647 1330.58 220.839 1328.65L402.533 1279.97C409.501 1278.1 415.175 1273.08 417.884 1266.42L418.136 1265.77L490.125 1072.31C492.276 1066.53 492.013 1060.14 489.412 1054.57L489.153 1054.03L392.69 860.566C389.744 854.657 384.405 850.309 378.046 848.609L377.427 848.453L188.84 803.604Z" stroke="url(#paint58_linear_3_108)" stroke-width="4"/>
<path opacity="0.869565" d="M181.728 806.043C174.577 803.974 166.883 805.497 161.067 810.098L160.511 810.553L13.9675 934.111C8.9063 938.378 5.93688 944.611 5.79802 951.209L5.79328 951.849L7.21599 1163.67C7.25777 1169.89 9.81693 1175.81 14.2931 1180.11L14.7319 1180.52L164.844 1317.18C170.322 1322.17 177.865 1324.21 185.11 1322.67L367.554 1283.89C374.573 1282.4 380.479 1277.72 383.547 1271.27L383.835 1270.64L465.383 1084.73C467.881 1079.03 467.963 1072.58 465.628 1066.83L465.394 1066.28L380.54 872.194C377.888 866.128 372.756 861.509 366.469 859.499L365.858 859.314L181.728 806.043Z" stroke="url(#paint59_linear_3_108)" stroke-width="4"/>
<path opacity="0.884058" d="M174.234 809.29C167.255 806.902 159.568 808.01 153.558 812.237L152.981 812.656L1.40489 926.419C-3.90374 930.403 -7.2242 936.48 -7.72361 943.078L-7.76361 943.718L-17.6545 1150.94C-17.9537 1157.21 -15.6806 1163.32 -11.3772 1167.86L-10.9544 1168.3L130.099 1309.51C135.305 1314.72 142.694 1317.13 149.97 1315.98L332.632 1287.04C339.682 1285.93 345.799 1281.61 349.212 1275.37L349.534 1274.76L440.045 1096.86C442.89 1091.27 443.323 1084.77 441.263 1078.86L441.055 1078.29L367.612 884.264C365.262 878.057 360.35 873.177 354.151 870.861L353.547 870.645L174.234 809.29Z" stroke="url(#paint60_linear_3_108)" stroke-width="4"/>
<path opacity="0.898551" d="M166.312 813.313C159.519 810.618 151.865 811.316 145.684 815.161L145.091 815.543L-10.9013 919.331C-16.4422 923.018 -20.1054 928.917 -20.9661 935.495L-21.0414 936.134L-41.7595 1138.17C-42.4052 1144.47 -40.4272 1150.75 -36.308 1155.53L-35.9025 1155.99L96.0276 1301.19C100.954 1306.62 108.169 1309.37 115.454 1308.6L297.813 1289.43C304.871 1288.69 311.178 1284.74 314.921 1278.74L315.275 1278.15L414.132 1108.69C417.322 1103.22 418.113 1096.69 416.338 1090.63L416.158 1090.05L353.886 896.727C351.845 890.393 347.164 885.264 341.068 882.646L340.474 882.4L166.312 813.313Z" stroke="url(#paint61_linear_3_108)" stroke-width="4"/>
<path opacity="0.913043" d="M157.922 818.072C151.331 815.084 143.731 815.379 137.404 818.835L136.795 819.179L-22.9885 912.85C-28.745 916.225 -32.7427 921.927 -33.9647 928.466L-34.0741 929.101L-65.101 1125.4C-66.0982 1131.71 -64.4257 1138.14 -60.5022 1143.16L-60.1162 1143.64L62.6602 1292.27C67.2987 1297.89 74.3236 1300.98 81.5972 1300.6L263.139 1291.08C270.186 1290.71 276.659 1287.13 280.717 1281.39L281.103 1280.83L387.67 1120.17C391.2 1114.85 392.353 1108.3 390.872 1102.11L390.721 1101.51L339.345 909.531C337.62 903.085 333.184 897.717 327.205 894.803L326.622 894.528L157.922 818.072Z" stroke="url(#paint62_linear_3_108)" stroke-width="4"/>
<path opacity="0.927536" d="M149.025 823.53C142.648 820.265 135.126 820.162 128.677 823.224L128.056 823.53L-34.8919 906.98C-40.8471 910.029 -45.1702 915.515 -46.7522 921.994L-46.8968 922.624L-87.6848 1112.66C-89.0379 1118.97 -87.6805 1125.54 -83.9641 1130.79L-83.597 1131.29L30.0271 1282.81C34.3707 1288.6 41.1886 1292.01 48.4284 1292.01L228.653 1292.01C235.667 1292.01 242.284 1288.81 246.639 1283.34L247.054 1282.81L360.678 1131.29C364.547 1126.13 366.067 1119.59 364.888 1113.27L364.766 1112.66L323.978 922.624C322.574 916.082 318.393 910.488 312.545 907.282L311.973 906.98L149.025 823.53Z" stroke="url(#paint63_linear_3_108)" stroke-width="4"/>
<path opacity="0.942029" d="M139.585 829.646C133.435 826.116 126.013 825.628 119.468 828.291L118.838 828.559L-46.6511 901.718C-52.7869 904.431 -57.4218 909.682 -59.3616 916.082L-59.541 916.705L-109.518 1100.01C-111.231 1106.29 -110.199 1112.99 -106.701 1118.46L-106.354 1118.98L-1.84676 1272.84C2.1958 1278.79 8.79042 1282.51 15.9752 1282.89L194.394 1292.24C201.355 1292.6 208.091 1289.79 212.726 1284.62L213.169 1284.11L333.186 1142.02C337.386 1137.04 339.277 1130.53 338.409 1124.1L338.316 1123.48L307.773 935.955C306.695 929.334 302.782 923.524 297.078 920.034L296.521 919.703L139.585 829.646Z" stroke="url(#paint64_linear_3_108)" stroke-width="4"/>
<path opacity="0.956522" d="M129.571 836.376C123.659 832.599 116.357 831.733 109.743 833.996L109.105 834.225L-58.3005 897.066C-64.598 899.43 -69.5348 904.427 -71.829 910.727L-72.0427 911.341L-130.612 1087.48C-132.686 1093.72 -131.989 1100.53 -128.719 1106.21L-128.394 1106.76L-32.9405 1262.43C-29.2039 1268.52 -22.8463 1272.53 -15.7373 1273.28L160.4 1291.79C167.287 1292.52 174.12 1290.1 179.016 1285.24L179.483 1284.76L305.217 1152.33C309.744 1147.56 312.007 1141.1 311.457 1134.57L311.395 1133.93L290.727 949.47C289.978 942.785 286.341 936.774 280.795 933.006L280.253 932.649L129.571 836.376Z" stroke="url(#paint65_linear_3_108)" stroke-width="4"/>
<path opacity="0.971014" d="M118.952 843.677C113.288 839.668 106.129 838.436 99.4689 840.299L98.8258 840.488L-69.8755 893.016C-76.3152 895.021 -81.5395 899.747 -84.1839 905.928L-84.4317 906.531L-150.978 1075.11C-153.416 1081.29 -153.063 1088.21 -150.031 1094.09L-149.729 1094.66L-63.2347 1251.63C-59.8082 1257.85 -53.7018 1262.13 -46.6892 1263.24L126.706 1290.71C133.5 1291.78 140.406 1289.76 145.541 1285.22L146.032 1284.77L276.8 1162.21C281.644 1157.67 284.283 1151.27 284.058 1144.65L284.027 1144.01L272.832 963.116C272.415 956.384 269.066 950.186 263.691 946.148L263.164 945.764L118.952 843.677Z" stroke="url(#paint66_linear_3_108)" stroke-width="4"/>
<path opacity="0.985507" d="M107.702 851.501C102.296 847.276 95.2969 845.693 88.6176 847.157L87.9727 847.307L-81.413 889.564C-87.9744 891.201 -93.4714 895.639 -96.4602 901.681L-96.7424 902.271L-170.634 1062.95C-173.437 1069.05 -173.434 1076.05 -170.65 1082.13L-170.373 1082.72L-92.7155 1240.49C-89.6017 1246.81 -83.7581 1251.36 -76.8615 1252.83L93.3457 1289.01C100.027 1290.43 106.981 1288.8 112.335 1284.6L112.848 1284.18L247.961 1171.64C253.116 1167.34 256.132 1161.02 256.239 1154.33L256.24 1153.69L254.092 976.843C254.01 970.081 250.956 963.709 245.765 959.409L245.256 959L107.702 851.501Z" stroke="url(#paint67_linear_3_108)" stroke-width="4"/>
<path d="M95.7976 859.803C90.658 855.38 83.8382 853.458 77.1644 854.525L76.5187 854.637L-92.9451 886.701C-99.6075 887.962 -105.363 892.095 -108.689 897.978L-109.004 898.553L-189.594 1051.04C-192.762 1057.03 -193.119 1064.11 -190.594 1070.38L-190.34 1070.98L-121.371 1229.06C-118.572 1235.48 -113.003 1240.27 -106.242 1242.08L60.3515 1286.72C66.9011 1288.47 73.8797 1287.25 79.4295 1283.39L79.9623 1283.01L218.732 1180.59C224.187 1176.57 227.579 1170.34 228.024 1163.6L228.058 1162.95L234.507 990.597C234.76 983.821 232.011 977.29 227.016 972.738L226.525 972.303L95.7976 859.803Z" stroke="url(#paint68_linear_3_108)" stroke-width="4"/>
<defs>
<linearGradient id="paint0_linear_3_108" x1="1602.91" y1="1604.24" x2="1419.03" y2="443.222" gradientUnits="userSpaceOnUse">
<stop stop-color="#FF1CF7"/>
<stop offset="1" stop-color="#00F0FF"/>
</linearGradient>
<linearGradient id="paint1_linear_3_108" x1="1551.15" y1="1603.5" x2="1429.36" y2="444.766" gradientUnits="userSpaceOnUse">
<stop stop-color="#FF1CF7"/>
<stop offset="1" stop-color="#00F0FF"/>
</linearGradient>
<linearGradient id="paint2_linear_3_108" x1="1499.74" y1="1601.17" x2="1439.31" y2="448.015" gradientUnits="userSpaceOnUse">
<stop stop-color="#FF1CF7"/>
<stop offset="1" stop-color="#00F0FF"/>
</linearGradient>
<linearGradient id="paint3_linear_3_108" x1="1448.78" y1="1597.29" x2="1448.78" y2="452.93" gradientUnits="userSpaceOnUse">
<stop stop-color="#FF1CF7"/>
<stop offset="1" stop-color="#00F0FF"/>
</linearGradient>
<linearGradient id="paint4_linear_3_108" x1="1398.34" y1="1591.9" x2="1457.69" y2="459.471" gradientUnits="userSpaceOnUse">
<stop stop-color="#FF1CF7"/>
<stop offset="1" stop-color="#00F0FF"/>
</linearGradient>
<linearGradient id="paint5_linear_3_108" x1="1348.51" y1="1585.05" x2="1465.95" y2="467.59" gradientUnits="userSpaceOnUse">
<stop stop-color="#FF1CF7"/>
<stop offset="1" stop-color="#00F0FF"/>
</linearGradient>
<linearGradient id="paint6_linear_3_108" x1="1299.34" y1="1576.77" x2="1473.49" y2="477.237" gradientUnits="userSpaceOnUse">
<stop stop-color="#FF1CF7"/>
<stop offset="1" stop-color="#00F0FF"/>
</linearGradient>
<linearGradient id="paint7_linear_3_108" x1="1250.93" y1="1567.12" x2="1480.23" y2="488.358" gradientUnits="userSpaceOnUse">
<stop stop-color="#FF1CF7"/>
<stop offset="1" stop-color="#00F0FF"/>
</linearGradient>
<linearGradient id="paint8_linear_3_108" x1="1203.33" y1="1556.15" x2="1486.08" y2="500.893" gradientUnits="userSpaceOnUse">
<stop stop-color="#FF1CF7"/>
<stop offset="1" stop-color="#00F0FF"/>
</linearGradient>
<linearGradient id="paint9_linear_3_108" x1="1156.61" y1="1543.93" x2="1491" y2="514.781" gradientUnits="userSpaceOnUse">
<stop stop-color="#FF1CF7"/>
<stop offset="1" stop-color="#00F0FF"/>
</linearGradient>
<linearGradient id="paint10_linear_3_108" x1="1110.82" y1="1530.51" x2="1494.9" y2="529.957" gradientUnits="userSpaceOnUse">
<stop stop-color="#FF1CF7"/>
<stop offset="1" stop-color="#00F0FF"/>
</linearGradient>
<linearGradient id="paint11_linear_3_108" x1="1066.04" y1="1515.95" x2="1497.73" y2="546.351" gradientUnits="userSpaceOnUse">
<stop stop-color="#FF1CF7"/>
<stop offset="1" stop-color="#00F0FF"/>
</linearGradient>
<linearGradient id="paint12_linear_3_108" x1="1022.3" y1="1500.33" x2="1499.44" y2="563.894" gradientUnits="userSpaceOnUse">
<stop stop-color="#FF1CF7"/>
<stop offset="1" stop-color="#00F0FF"/>
</linearGradient>
<linearGradient id="paint13_linear_3_108" x1="979.659" y1="1483.71" x2="1499.96" y2="582.511" gradientUnits="userSpaceOnUse">
<stop stop-color="#FF1CF7"/>
<stop offset="1" stop-color="#00F0FF"/>
</linearGradient>
<linearGradient id="paint14_linear_3_108" x1="938.158" y1="1466.16" x2="1499.27" y2="602.127" gradientUnits="userSpaceOnUse">
<stop stop-color="#FF1CF7"/>
<stop offset="1" stop-color="#00F0FF"/>
</linearGradient>
<linearGradient id="paint15_linear_3_108" x1="897.837" y1="1447.75" x2="1497.3" y2="622.663" gradientUnits="userSpaceOnUse">
<stop stop-color="#FF1CF7"/>
<stop offset="1" stop-color="#00F0FF"/>
</linearGradient>
<linearGradient id="paint16_linear_3_108" x1="858.732" y1="1428.56" x2="1494.02" y2="644.04" gradientUnits="userSpaceOnUse">
<stop stop-color="#FF1CF7"/>
<stop offset="1" stop-color="#00F0FF"/>
</linearGradient>
<linearGradient id="paint17_linear_3_108" x1="820.873" y1="1408.66" x2="1489.41" y2="666.177" gradientUnits="userSpaceOnUse">
<stop stop-color="#FF1CF7"/>
<stop offset="1" stop-color="#00F0FF"/>
</linearGradient>
<linearGradient id="paint18_linear_3_108" x1="784.285" y1="1388.13" x2="1483.43" y2="688.992" gradientUnits="userSpaceOnUse">
<stop stop-color="#FF1CF7"/>
<stop offset="1" stop-color="#00F0FF"/>
</linearGradient>
<linearGradient id="paint19_linear_3_108" x1="748.991" y1="1367.05" x2="1476.06" y2="712.401" gradientUnits="userSpaceOnUse">
<stop stop-color="#FF1CF7"/>
<stop offset="1" stop-color="#00F0FF"/>
</linearGradient>
<linearGradient id="paint20_linear_3_108" x1="715.009" y1="1345.5" x2="1467.28" y2="736.323" gradientUnits="userSpaceOnUse">
<stop stop-color="#FF1CF7"/>
<stop offset="1" stop-color="#00F0FF"/>
</linearGradient>
<linearGradient id="paint21_linear_3_108" x1="682.348" y1="1323.54" x2="1457.07" y2="760.672" gradientUnits="userSpaceOnUse">
<stop stop-color="#FF1CF7"/>
<stop offset="1" stop-color="#00F0FF"/>
</linearGradient>
<linearGradient id="paint22_linear_3_108" x1="651.019" y1="1301.27" x2="1445.44" y2="785.365" gradientUnits="userSpaceOnUse">
<stop stop-color="#FF1CF7"/>
<stop offset="1" stop-color="#00F0FF"/>
</linearGradient>
<linearGradient id="paint23_linear_3_108" x1="621.025" y1="1278.75" x2="1432.37" y2="810.319" gradientUnits="userSpaceOnUse">
<stop stop-color="#FF1CF7"/>
<stop offset="1" stop-color="#00F0FF"/>
</linearGradient>
<linearGradient id="paint24_linear_3_108" x1="592.363" y1="1256.07" x2="1417.87" y2="835.451" gradientUnits="userSpaceOnUse">
<stop stop-color="#FF1CF7"/>
<stop offset="1" stop-color="#00F0FF"/>
</linearGradient>
<linearGradient id="paint25_linear_3_108" x1="565.03" y1="1233.29" x2="1401.94" y2="860.679" gradientUnits="userSpaceOnUse">
<stop stop-color="#FF1CF7"/>
<stop offset="1" stop-color="#00F0FF"/>
</linearGradient>
<linearGradient id="paint26_linear_3_108" x1="539.015" y1="1210.51" x2="1384.59" y2="885.921" gradientUnits="userSpaceOnUse">
<stop stop-color="#FF1CF7"/>
<stop offset="1" stop-color="#00F0FF"/>
</linearGradient>
<linearGradient id="paint27_linear_3_108" x1="514.305" y1="1187.78" x2="1365.84" y2="911.1" gradientUnits="userSpaceOnUse">
<stop stop-color="#FF1CF7"/>
<stop offset="1" stop-color="#00F0FF"/>
</linearGradient>
<linearGradient id="paint28_linear_3_108" x1="490.881" y1="1165.19" x2="1345.71" y2="936.137" gradientUnits="userSpaceOnUse">
<stop stop-color="#FF1CF7"/>
<stop offset="1" stop-color="#00F0FF"/>
</linearGradient>
<linearGradient id="paint29_linear_3_108" x1="468.722" y1="1142.8" x2="1324.22" y2="960.955" gradientUnits="userSpaceOnUse">
<stop stop-color="#FF1CF7"/>
<stop offset="1" stop-color="#00F0FF"/>
</linearGradient>
<linearGradient id="paint30_linear_3_108" x1="447.801" y1="1120.68" x2="1301.4" y2="985.481" gradientUnits="userSpaceOnUse">
<stop stop-color="#FF1CF7"/>
<stop offset="1" stop-color="#00F0FF"/>
</linearGradient>
<linearGradient id="paint31_linear_3_108" x1="428.09" y1="1098.9" x2="1277.28" y2="1009.64" gradientUnits="userSpaceOnUse">
<stop stop-color="#FF1CF7"/>
<stop offset="1" stop-color="#00F0FF"/>
</linearGradient>
<linearGradient id="paint32_linear_3_108" x1="409.556" y1="1077.52" x2="1251.89" y2="1033.37" gradientUnits="userSpaceOnUse">
<stop stop-color="#FF1CF7"/>
<stop offset="1" stop-color="#00F0FF"/>
</linearGradient>
<linearGradient id="paint33_linear_3_108" x1="392.161" y1="1056.6" x2="1225.27" y2="1056.6" gradientUnits="userSpaceOnUse">
<stop stop-color="#FF1CF7"/>
<stop offset="1" stop-color="#00F0FF"/>
</linearGradient>
<linearGradient id="paint34_linear_3_108" x1="375.867" y1="1036.21" x2="1197.48" y2="1079.27" gradientUnits="userSpaceOnUse">
<stop stop-color="#FF1CF7"/>
<stop offset="1" stop-color="#00F0FF"/>
</linearGradient>
<linearGradient id="paint35_linear_3_108" x1="360.631" y1="1016.4" x2="1168.54" y2="1101.32" gradientUnits="userSpaceOnUse">
<stop stop-color="#FF1CF7"/>
<stop offset="1" stop-color="#00F0FF"/>
</linearGradient>
<linearGradient id="paint36_linear_3_108" x1="346.408" y1="997.223" x2="1138.52" y2="1122.68" gradientUnits="userSpaceOnUse">
<stop stop-color="#FF1CF7"/>
<stop offset="1" stop-color="#00F0FF"/>
</linearGradient>
<linearGradient id="paint37_linear_3_108" x1="333.149" y1="978.727" x2="1107.46" y2="1143.31" gradientUnits="userSpaceOnUse">
<stop stop-color="#FF1CF7"/>
<stop offset="1" stop-color="#00F0FF"/>
</linearGradient>
<linearGradient id="paint38_linear_3_108" x1="320.804" y1="960.96" x2="1075.42" y2="1163.16" gradientUnits="userSpaceOnUse">
<stop stop-color="#FF1CF7"/>
<stop offset="1" stop-color="#00F0FF"/>
</linearGradient>
<linearGradient id="paint39_linear_3_108" x1="309.32" y1="943.966" x2="1042.45" y2="1182.18" gradientUnits="userSpaceOnUse">
<stop stop-color="#FF1CF7"/>
<stop offset="1" stop-color="#00F0FF"/>
</linearGradient>
<linearGradient id="paint40_linear_3_108" x1="298.643" y1="927.784" x2="1008.62" y2="1200.32" gradientUnits="userSpaceOnUse">
<stop stop-color="#FF1CF7"/>
<stop offset="1" stop-color="#00F0FF"/>
</linearGradient>
<linearGradient id="paint41_linear_3_108" x1="288.716" y1="912.451" x2="973.978" y2="1217.55" gradientUnits="userSpaceOnUse">
<stop stop-color="#FF1CF7"/>
<stop offset="1" stop-color="#00F0FF"/>
</linearGradient>
<linearGradient id="paint42_linear_3_108" x1="279.481" y1="897.999" x2="938.592" y2="1233.83" gradientUnits="userSpaceOnUse">
<stop stop-color="#FF1CF7"/>
<stop offset="1" stop-color="#00F0FF"/>
</linearGradient>
<linearGradient id="paint43_linear_3_108" x1="270.88" y1="884.457" x2="902.526" y2="1249.14" gradientUnits="userSpaceOnUse">
<stop stop-color="#FF1CF7"/>
<stop offset="1" stop-color="#00F0FF"/>
</linearGradient>
<linearGradient id="paint44_linear_3_108" x1="262.851" y1="871.85" x2="865.845" y2="1263.44" gradientUnits="userSpaceOnUse">
<stop stop-color="#FF1CF7"/>
<stop offset="1" stop-color="#00F0FF"/>
</linearGradient>
<linearGradient id="paint45_linear_3_108" x1="255.334" y1="860.199" x2="828.613" y2="1276.71" gradientUnits="userSpaceOnUse">
<stop stop-color="#FF1CF7"/>
<stop offset="1" stop-color="#00F0FF"/>
</linearGradient>
<linearGradient id="paint46_linear_3_108" x1="248.266" y1="849.522" x2="790.899" y2="1288.94" gradientUnits="userSpaceOnUse">
<stop stop-color="#FF1CF7"/>
<stop offset="1" stop-color="#00F0FF"/>
</linearGradient>
<linearGradient id="paint47_linear_3_108" x1="241.586" y1="839.832" x2="752.767" y2="1300.1" gradientUnits="userSpaceOnUse">
<stop stop-color="#FF1CF7"/>
<stop offset="1" stop-color="#00F0FF"/>
</linearGradient>
<linearGradient id="paint48_linear_3_108" x1="235.231" y1="831.139" x2="714.287" y2="1310.19" gradientUnits="userSpaceOnUse">
<stop stop-color="#FF1CF7"/>
<stop offset="1" stop-color="#00F0FF"/>
</linearGradient>
<linearGradient id="paint49_linear_3_108" x1="229.138" y1="823.448" x2="675.524" y2="1319.21" gradientUnits="userSpaceOnUse">
<stop stop-color="#FF1CF7"/>
<stop offset="1" stop-color="#00F0FF"/>
</linearGradient>
<linearGradient id="paint50_linear_3_108" x1="223.246" y1="816.763" x2="636.545" y2="1327.14" gradientUnits="userSpaceOnUse">
<stop stop-color="#FF1CF7"/>
<stop offset="1" stop-color="#00F0FF"/>
</linearGradient>
<linearGradient id="paint51_linear_3_108" x1="217.494" y1="811.081" x2="597.416" y2="1334" gradientUnits="userSpaceOnUse">
<stop stop-color="#FF1CF7"/>
<stop offset="1" stop-color="#00F0FF"/>
</linearGradient>
<linearGradient id="paint52_linear_3_108" x1="211.82" y1="806.398" x2="558.203" y2="1339.78" gradientUnits="userSpaceOnUse">
<stop stop-color="#FF1CF7"/>
<stop offset="1" stop-color="#00F0FF"/>
</linearGradient>
<linearGradient id="paint53_linear_3_108" x1="206.164" y1="802.704" x2="518.97" y2="1344.5" gradientUnits="userSpaceOnUse">
<stop stop-color="#FF1CF7"/>
<stop offset="1" stop-color="#00F0FF"/>
</linearGradient>
<linearGradient id="paint54_linear_3_108" x1="200.469" y1="799.988" x2="479.781" y2="1348.17" gradientUnits="userSpaceOnUse">
<stop stop-color="#FF1CF7"/>
<stop offset="1" stop-color="#00F0FF"/>
</linearGradient>
<linearGradient id="paint55_linear_3_108" x1="194.676" y1="798.233" x2="440.696" y2="1350.8" gradientUnits="userSpaceOnUse">
<stop stop-color="#FF1CF7"/>
<stop offset="1" stop-color="#00F0FF"/>
</linearGradient>
<linearGradient id="paint56_linear_3_108" x1="188.73" y1="797.421" x2="401.775" y2="1352.42" gradientUnits="userSpaceOnUse">
<stop stop-color="#FF1CF7"/>
<stop offset="1" stop-color="#00F0FF"/>
</linearGradient>
<linearGradient id="paint57_linear_3_108" x1="182.577" y1="797.53" x2="363.077" y2="1353.05" gradientUnits="userSpaceOnUse">
<stop stop-color="#FF1CF7"/>
<stop offset="1" stop-color="#00F0FF"/>
</linearGradient>
<linearGradient id="paint58_linear_3_108" x1="176.164" y1="798.534" x2="324.658" y2="1352.72" gradientUnits="userSpaceOnUse">
<stop stop-color="#FF1CF7"/>
<stop offset="1" stop-color="#00F0FF"/>
</linearGradient>
<linearGradient id="paint59_linear_3_108" x1="169.442" y1="800.406" x2="286.572" y2="1351.46" gradientUnits="userSpaceOnUse">
<stop stop-color="#FF1CF7"/>
<stop offset="1" stop-color="#00F0FF"/>
</linearGradient>
<linearGradient id="paint60_linear_3_108" x1="162.363" y1="803.114" x2="248.869" y2="1349.29" gradientUnits="userSpaceOnUse">
<stop stop-color="#FF1CF7"/>
<stop offset="1" stop-color="#00F0FF"/>
</linearGradient>
<linearGradient id="paint61_linear_3_108" x1="154.881" y1="806.626" x2="211.6" y2="1346.27" gradientUnits="userSpaceOnUse">
<stop stop-color="#FF1CF7"/>
<stop offset="1" stop-color="#00F0FF"/>
</linearGradient>
<linearGradient id="paint62_linear_3_108" x1="146.954" y1="810.905" x2="174.809" y2="1342.41" gradientUnits="userSpaceOnUse">
<stop stop-color="#FF1CF7"/>
<stop offset="1" stop-color="#00F0FF"/>
</linearGradient>
<linearGradient id="paint63_linear_3_108" x1="138.541" y1="815.914" x2="138.541" y2="1337.78" gradientUnits="userSpaceOnUse">
<stop stop-color="#FF1CF7"/>
<stop offset="1" stop-color="#00F0FF"/>
</linearGradient>
<linearGradient id="paint64_linear_3_108" x1="129.604" y1="821.612" x2="102.835" y2="1332.4" gradientUnits="userSpaceOnUse">
<stop stop-color="#FF1CF7"/>
<stop offset="1" stop-color="#00F0FF"/>
</linearGradient>
<linearGradient id="paint65_linear_3_108" x1="120.11" y1="827.958" x2="67.7291" y2="1326.33" gradientUnits="userSpaceOnUse">
<stop stop-color="#FF1CF7"/>
<stop offset="1" stop-color="#00F0FF"/>
</linearGradient>
<linearGradient id="paint66_linear_3_108" x1="110.025" y1="834.907" x2="33.257" y2="1319.6" gradientUnits="userSpaceOnUse">
<stop stop-color="#FF1CF7"/>
<stop offset="1" stop-color="#00F0FF"/>
</linearGradient>
<linearGradient id="paint67_linear_3_108" x1="99.3229" y1="842.415" x2="-0.550114" y2="1312.28" gradientUnits="userSpaceOnUse">
<stop stop-color="#FF1CF7"/>
<stop offset="1" stop-color="#00F0FF"/>
</linearGradient>
<linearGradient id="paint68_linear_3_108" x1="87.9764" y1="850.434" x2="-33.6653" y2="1304.41" gradientUnits="userSpaceOnUse">
<stop stop-color="#FF1CF7"/>
<stop offset="1" stop-color="#00F0FF"/>
</linearGradient>
</defs>
</svg>
